<?xml version="1.0" encoding="UTF-8" standalone="no"?><svg xmlns="http://www.w3.org/2000/svg" xmlns:xlink="http://www.w3.org/1999/xlink" contentScriptType="application/ecmascript" contentStyleType="text/css" height="642px" preserveAspectRatio="none" style="width:681px;height:642px;" version="1.1" viewBox="0 0 681 642" width="681px" zoomAndPan="magnify"><defs><filter height="300%" id="f11jmtmhhx3qsd" width="300%" x="-1" y="-1"><feGaussianBlur result="blurOut" stdDeviation="2.0"/><feColorMatrix in="blurOut" result="blurOut2" type="matrix" values="0 0 0 0 0 0 0 0 0 0 0 0 0 0 0 0 0 0 .4 0"/><feOffset dx="4.0" dy="4.0" in="blurOut2" result="blurOut3"/><feBlend in="SourceGraphic" in2="blurOut3" mode="normal"/></filter></defs><g><text fill="#000000" font-family="sans-serif" font-size="18" lengthAdjust="spacingAndGlyphs" text-decoration="underline" textLength="180" x="244.5" y="16.708">SRC's Class Diagram</text><line style="stroke: #000000; stroke-width: 1.0;" x1="244.5" x2="424.5" y1="18.708" y2="18.708"/><text fill="#000000" font-family="sans-serif" font-size="18" lengthAdjust="spacingAndGlyphs" textLength="0" x="337.5" y="37.6611"/><polygon fill="#FFFFFF" filter="url(#f11jmtmhhx3qsd)" points="14,134.4063,44,134.4063,51,144.4063,92,144.4063,92,211.4063,14,211.4063,14,134.4063" style="stroke: #000000; stroke-width: 1.5;"/><line style="stroke: #000000; stroke-width: 1.5;" x1="14" x2="51" y1="144.4063" y2="144.4063"/><polygon fill="#FFFFFF" filter="url(#f11jmtmhhx3qsd)" points="111,121.9063,159,121.9063,166,131.9063,303,131.9063,303,223.9063,111,223.9063,111,121.9063" style="stroke: #000000; stroke-width: 1.5;"/><line style="stroke: #000000; stroke-width: 1.5;" x1="111" x2="166" y1="131.9063" y2="131.9063"/><polygon fill="#FFFFFF" filter="url(#f11jmtmhhx3qsd)" points="475,57.9063,517,57.9063,524,67.9063,643,67.9063,643,287.9063,475,287.9063,475,57.9063" style="stroke: #000000; stroke-width: 1.5;"/><line style="stroke: #000000; stroke-width: 1.5;" x1="475" x2="524" y1="67.9063" y2="67.9063"/><polygon fill="#FFFFFF" filter="url(#f11jmtmhhx3qsd)" points="174,348.9063,243.5,348.9063,250.5,358.9063,452,358.9063,452,566.9063,174,566.9063,174,348.9063" style="stroke: #000000; stroke-width: 1.5;"/><line style="stroke: #000000; stroke-width: 1.5;" x1="174" x2="250.5" y1="358.9063" y2="358.9063"/><polygon fill="#FFFFFF" filter="url(#f11jmtmhhx3qsd)" points="322,115.4063,355.5,115.4063,362.5,125.4063,456,125.4063,456,230.4063,322,230.4063,322,115.4063" style="stroke: #000000; stroke-width: 1.5;"/><line style="stroke: #000000; stroke-width: 1.5;" x1="322" x2="362.5" y1="125.4063" y2="125.4063"/><!--class Main--><rect fill="#FEFECE" filter="url(#f11jmtmhhx3qsd)" height="60.8047" id="Main" style="stroke: #A80036; stroke-width: 1.5;" width="62" x="22" y="142.4063"/><ellipse cx="37.45" cy="158.4063" fill="#ADD1B2" rx="11" ry="11" style="stroke: #A80036; stroke-width: 1.0;"/><path d="M40.45,163.4063 Q39.8406,163.9063 39.1844,164.1563 Q38.5281,164.4063 37.7938,164.4063 Q35.1844,164.4063 33.8172,162.8672 Q32.45,161.3281 32.45,158.4063 Q32.45,155.4844 33.8172,153.9453 Q35.1844,152.4063 37.7938,152.4063 Q38.5281,152.4063 39.2,152.6563 Q39.8719,152.9063 40.45,153.4063 L40.45,156.4063 Q39.8406,155.375 39.2625,154.8906 Q38.6844,154.4063 38.075,154.4063 Q36.7781,154.4063 36.1141,155.4141 Q35.45,156.4219 35.45,158.4063 Q35.45,160.3906 36.1141,161.3984 Q36.7781,162.4063 38.075,162.4063 Q38.6844,162.4063 39.2625,161.9219 Q39.8406,161.4375 40.45,160.4063 L40.45,163.4063 Z "/><text fill="#000000" font-family="sans-serif" font-size="12" lengthAdjust="spacingAndGlyphs" textLength="29" x="51.55" y="162.5605">Main</text><line style="stroke: #A80036; stroke-width: 1.5;" x1="23" x2="83" y1="174.4063" y2="174.4063"/><line style="stroke: #A80036; stroke-width: 1.5;" x1="23" x2="83" y1="182.4063" y2="182.4063"/><ellipse cx="33" cy="194.3086" fill="#84BE84" rx="3" ry="3" style="stroke: #038048; stroke-width: 1.0;"/><text fill="#000000" font-family="sans-serif" font-size="11" lengthAdjust="spacingAndGlyphs" text-decoration="underline" textLength="36" x="42" y="196.6167">main()</text><line style="stroke: #000000; stroke-width: 1.0;" x1="42" x2="78" y1="198.6167" y2="198.6167"/><!--class MultipleEntryDictionary--><rect fill="#FEFECE" filter="url(#f11jmtmhhx3qsd)" height="86.4141" id="MultipleEntryDictionary" style="stroke: #A80036; stroke-width: 1.5;" width="176" x="119" y="129.9063"/><ellipse cx="134" cy="145.9063" fill="#B4A7E5" rx="11" ry="11" style="stroke: #A80036; stroke-width: 1.0;"/><path d="M130.5,141.9063 L130.5,139.9063 L137.5,139.9063 L137.5,141.9063 L135.5,141.9063 L135.5,149.9063 L137.5,149.9063 L137.5,151.9063 L130.5,151.9063 L130.5,149.9063 L132.5,149.9063 L132.5,141.9063 L130.5,141.9063 Z "/><text fill="#000000" font-family="sans-serif" font-size="12" font-style="italic" lengthAdjust="spacingAndGlyphs" textLength="144" x="148" y="150.0605">MultipleEntryDictionary</text><line style="stroke: #A80036; stroke-width: 1.5;" x1="120" x2="294" y1="161.9063" y2="161.9063"/><line style="stroke: #A80036; stroke-width: 1.5;" x1="120" x2="294" y1="169.9063" y2="169.9063"/><ellipse cx="130" cy="181.8086" fill="#84BE84" rx="3" ry="3" style="stroke: #038048; stroke-width: 1.0;"/><text fill="#000000" font-family="sans-serif" font-size="11" font-style="italic" lengthAdjust="spacingAndGlyphs" textLength="29" x="139" y="184.1167">add()</text><ellipse cx="130" cy="194.6133" fill="#84BE84" rx="3" ry="3" style="stroke: #038048; stroke-width: 1.0;"/><text fill="#000000" font-family="sans-serif" font-size="11" font-style="italic" lengthAdjust="spacingAndGlyphs" textLength="58" x="139" y="196.9214">translate()</text><ellipse cx="130" cy="207.418" fill="#84BE84" rx="3" ry="3" style="stroke: #038048; stroke-width: 1.0;"/><text fill="#000000" font-family="sans-serif" font-size="11" font-style="italic" lengthAdjust="spacingAndGlyphs" textLength="52" x="139" y="209.7261">remove()</text><!--class Person--><rect fill="#FEFECE" filter="url(#f11jmtmhhx3qsd)" height="214.4609" id="Person" style="stroke: #A80036; stroke-width: 1.5;" width="152" x="483" y="65.9063"/><ellipse cx="532.75" cy="81.9063" fill="#ADD1B2" rx="11" ry="11" style="stroke: #A80036; stroke-width: 1.0;"/><path d="M535.75,86.9063 Q535.1406,87.4063 534.4844,87.6563 Q533.8281,87.9063 533.0938,87.9063 Q530.4844,87.9063 529.1172,86.3672 Q527.75,84.8281 527.75,81.9063 Q527.75,78.9844 529.1172,77.4453 Q530.4844,75.9063 533.0938,75.9063 Q533.8281,75.9063 534.5,76.1563 Q535.1719,76.4063 535.75,76.9063 L535.75,79.9063 Q535.1406,78.875 534.5625,78.3906 Q533.9844,77.9063 533.375,77.9063 Q532.0781,77.9063 531.4141,78.9141 Q530.75,79.9219 530.75,81.9063 Q530.75,83.8906 531.4141,84.8984 Q532.0781,85.9063 533.375,85.9063 Q533.9844,85.9063 534.5625,85.4219 Q535.1406,84.9375 535.75,83.9063 L535.75,86.9063 Z "/><text fill="#000000" font-family="sans-serif" font-size="12" lengthAdjust="spacingAndGlyphs" textLength="44" x="553.25" y="86.0605">Person</text><line style="stroke: #A80036; stroke-width: 1.5;" x1="484" x2="634" y1="97.9063" y2="97.9063"/><rect fill="none" height="6" style="stroke: #C82930; stroke-width: 1.0;" width="6" x="491" y="106.8086"/><text fill="#000000" font-family="sans-serif" font-size="11" lengthAdjust="spacingAndGlyphs" textLength="78" x="503" y="112.1167">name : String</text><rect fill="none" height="6" style="stroke: #C82930; stroke-width: 1.0;" width="6" x="491" y="119.6133"/><text fill="#000000" font-family="sans-serif" font-size="11" lengthAdjust="spacingAndGlyphs" textLength="126" x="503" y="124.9214">phoneNumber : String</text><rect fill="none" height="6" style="stroke: #C82930; stroke-width: 1.0;" width="6" x="491" y="132.418"/><text fill="#000000" font-family="sans-serif" font-size="11" lengthAdjust="spacingAndGlyphs" textLength="106" x="503" y="137.7261">streetAddr : String</text><rect fill="none" height="6" style="stroke: #C82930; stroke-width: 1.0;" width="6" x="491" y="145.2227"/><text fill="#000000" font-family="sans-serif" font-size="11" lengthAdjust="spacingAndGlyphs" textLength="65" x="503" y="150.5308">city : String</text><line style="stroke: #A80036; stroke-width: 1.5;" x1="484" x2="634" y1="157.125" y2="157.125"/><ellipse cx="494" cy="169.0273" fill="#84BE84" rx="3" ry="3" style="stroke: #038048; stroke-width: 1.0;"/><text fill="#000000" font-family="sans-serif" font-size="11" lengthAdjust="spacingAndGlyphs" textLength="48" x="503" y="171.3354">Person()</text><ellipse cx="494" cy="181.832" fill="#84BE84" rx="3" ry="3" style="stroke: #038048; stroke-width: 1.0;"/><text fill="#000000" font-family="sans-serif" font-size="11" lengthAdjust="spacingAndGlyphs" textLength="48" x="503" y="184.1401">Person()</text><ellipse cx="494" cy="194.6367" fill="#84BE84" rx="3" ry="3" style="stroke: #038048; stroke-width: 1.0;"/><text fill="#000000" font-family="sans-serif" font-size="11" lengthAdjust="spacingAndGlyphs" textLength="59" x="503" y="196.9448">getName()</text><ellipse cx="494" cy="207.4414" fill="#84BE84" rx="3" ry="3" style="stroke: #038048; stroke-width: 1.0;"/><text fill="#000000" font-family="sans-serif" font-size="11" lengthAdjust="spacingAndGlyphs" textLength="106" x="503" y="209.7495">getPhoneNumber()</text><ellipse cx="494" cy="220.2461" fill="#84BE84" rx="3" ry="3" style="stroke: #038048; stroke-width: 1.0;"/><text fill="#000000" font-family="sans-serif" font-size="11" lengthAdjust="spacingAndGlyphs" textLength="87" x="503" y="222.5542">getStreetAddr()</text><ellipse cx="494" cy="233.0508" fill="#84BE84" rx="3" ry="3" style="stroke: #038048; stroke-width: 1.0;"/><text fill="#000000" font-family="sans-serif" font-size="11" lengthAdjust="spacingAndGlyphs" textLength="47" x="503" y="235.3589">getCity()</text><ellipse cx="494" cy="245.8555" fill="#84BE84" rx="3" ry="3" style="stroke: #038048; stroke-width: 1.0;"/><text fill="#000000" font-family="sans-serif" font-size="11" lengthAdjust="spacingAndGlyphs" textLength="106" x="503" y="248.1636">setPhoneNumber()</text><ellipse cx="494" cy="258.6602" fill="#84BE84" rx="3" ry="3" style="stroke: #038048; stroke-width: 1.0;"/><text fill="#000000" font-family="sans-serif" font-size="11" lengthAdjust="spacingAndGlyphs" textLength="87" x="503" y="260.9683">setStreetAddr()</text><ellipse cx="494" cy="271.4648" fill="#84BE84" rx="3" ry="3" style="stroke: #038048; stroke-width: 1.0;"/><text fill="#000000" font-family="sans-serif" font-size="11" lengthAdjust="spacingAndGlyphs" textLength="47" x="503" y="273.7729">setCity()</text><!--class Phonebook--><rect fill="#FEFECE" filter="url(#f11jmtmhhx3qsd)" height="201.6563" id="Phonebook" style="stroke: #A80036; stroke-width: 1.5;" width="261" x="182.5" y="356.9063"/><ellipse cx="273.25" cy="372.9063" fill="#ADD1B2" rx="11" ry="11" style="stroke: #A80036; stroke-width: 1.0;"/><path d="M276.25,377.9063 Q275.6406,378.4063 274.9844,378.6563 Q274.3281,378.9063 273.5938,378.9063 Q270.9844,378.9063 269.6172,377.3672 Q268.25,375.8281 268.25,372.9063 Q268.25,369.9844 269.6172,368.4453 Q270.9844,366.9063 273.5938,366.9063 Q274.3281,366.9063 275,367.1563 Q275.6719,367.4063 276.25,367.9063 L276.25,370.9063 Q275.6406,369.875 275.0625,369.3906 Q274.4844,368.9063 273.875,368.9063 Q272.5781,368.9063 271.9141,369.9141 Q271.25,370.9219 271.25,372.9063 Q271.25,374.8906 271.9141,375.8984 Q272.5781,376.9063 273.875,376.9063 Q274.4844,376.9063 275.0625,376.4219 Q275.6406,375.9375 276.25,374.9063 L276.25,377.9063 Z "/><text fill="#000000" font-family="sans-serif" font-size="12" lengthAdjust="spacingAndGlyphs" textLength="71" x="293.75" y="377.0605">Phonebook</text><line style="stroke: #A80036; stroke-width: 1.5;" x1="183.5" x2="442.5" y1="388.9063" y2="388.9063"/><rect fill="none" height="6" style="stroke: #C82930; stroke-width: 1.0;" width="6" x="190.5" y="397.8086"/><text fill="#000000" font-family="sans-serif" font-size="11" lengthAdjust="spacingAndGlyphs" textLength="235" x="202.5" y="403.1167">phoneBook : Map&lt;String, Set&lt;Person&gt;&gt;</text><rect fill="none" height="6" style="stroke: #C82930; stroke-width: 1.0;" width="6" x="190.5" y="410.6133"/><text fill="#000000" font-family="sans-serif" font-size="11" lengthAdjust="spacingAndGlyphs" textLength="86" x="202.5" y="415.9214">scan : Scanner</text><line style="stroke: #A80036; stroke-width: 1.5;" x1="183.5" x2="442.5" y1="422.5156" y2="422.5156"/><ellipse cx="193.5" cy="434.418" fill="#84BE84" rx="3" ry="3" style="stroke: #038048; stroke-width: 1.0;"/><text fill="#000000" font-family="sans-serif" font-size="11" lengthAdjust="spacingAndGlyphs" textLength="70" x="202.5" y="436.7261">Phonebook()</text><ellipse cx="193.5" cy="447.2227" fill="#84BE84" rx="3" ry="3" style="stroke: #038048; stroke-width: 1.0;"/><text fill="#000000" font-family="sans-serif" font-size="11" lengthAdjust="spacingAndGlyphs" textLength="69" x="202.5" y="449.5308">addPerson()</text><ellipse cx="193.5" cy="460.0273" fill="#84BE84" rx="3" ry="3" style="stroke: #038048; stroke-width: 1.0;"/><text fill="#000000" font-family="sans-serif" font-size="11" lengthAdjust="spacingAndGlyphs" textLength="94" x="202.5" y="462.3354">searchByName()</text><ellipse cx="193.5" cy="472.832" fill="#84BE84" rx="3" ry="3" style="stroke: #038048; stroke-width: 1.0;"/><text fill="#000000" font-family="sans-serif" font-size="11" lengthAdjust="spacingAndGlyphs" textLength="106" x="202.5" y="475.1401">searchByNumber()</text><ellipse cx="193.5" cy="485.6367" fill="#84BE84" rx="3" ry="3" style="stroke: #038048; stroke-width: 1.0;"/><text fill="#000000" font-family="sans-serif" font-size="11" lengthAdjust="spacingAndGlyphs" textLength="76" x="202.5" y="487.9448">addAddress()</text><ellipse cx="193.5" cy="498.4414" fill="#84BE84" rx="3" ry="3" style="stroke: #038048; stroke-width: 1.0;"/><text fill="#000000" font-family="sans-serif" font-size="11" lengthAdjust="spacingAndGlyphs" textLength="68" x="202.5" y="500.7495">searchInfo()</text><ellipse cx="193.5" cy="511.2461" fill="#84BE84" rx="3" ry="3" style="stroke: #038048; stroke-width: 1.0;"/><text fill="#000000" font-family="sans-serif" font-size="11" lengthAdjust="spacingAndGlyphs" textLength="29" x="202.5" y="513.5542">add()</text><ellipse cx="193.5" cy="524.0508" fill="#84BE84" rx="3" ry="3" style="stroke: #038048; stroke-width: 1.0;"/><text fill="#000000" font-family="sans-serif" font-size="11" lengthAdjust="spacingAndGlyphs" textLength="59" x="202.5" y="526.3589">translate()</text><ellipse cx="193.5" cy="536.8555" fill="#84BE84" rx="3" ry="3" style="stroke: #038048; stroke-width: 1.0;"/><text fill="#000000" font-family="sans-serif" font-size="11" lengthAdjust="spacingAndGlyphs" textLength="51" x="202.5" y="539.1636">remove()</text><ellipse cx="193.5" cy="549.6602" fill="#84BE84" rx="3" ry="3" style="stroke: #038048; stroke-width: 1.0;"/><text fill="#000000" font-family="sans-serif" font-size="11" lengthAdjust="spacingAndGlyphs" textLength="74" x="202.5" y="551.9683">filterSearch()</text><!--class UserInterface--><rect fill="#FEFECE" filter="url(#f11jmtmhhx3qsd)" height="99.2188" id="UserInterface" style="stroke: #A80036; stroke-width: 1.5;" width="117" x="330.5" y="123.4063"/><ellipse cx="345.5" cy="139.4063" fill="#ADD1B2" rx="11" ry="11" style="stroke: #A80036; stroke-width: 1.0;"/><path d="M348.5,144.4063 Q347.8906,144.9063 347.2344,145.1563 Q346.5781,145.4063 345.8438,145.4063 Q343.2344,145.4063 341.8672,143.8672 Q340.5,142.3281 340.5,139.4063 Q340.5,136.4844 341.8672,134.9453 Q343.2344,133.4063 345.8438,133.4063 Q346.5781,133.4063 347.25,133.6563 Q347.9219,133.9063 348.5,134.4063 L348.5,137.4063 Q347.8906,136.375 347.3125,135.8906 Q346.7344,135.4063 346.125,135.4063 Q344.8281,135.4063 344.1641,136.4141 Q343.5,137.4219 343.5,139.4063 Q343.5,141.3906 344.1641,142.3984 Q344.8281,143.4063 346.125,143.4063 Q346.7344,143.4063 347.3125,142.9219 Q347.8906,142.4375 348.5,141.4063 L348.5,144.4063 Z "/><text fill="#000000" font-family="sans-serif" font-size="12" lengthAdjust="spacingAndGlyphs" textLength="85" x="359.5" y="143.5605">UserInterface</text><line style="stroke: #A80036; stroke-width: 1.5;" x1="331.5" x2="446.5" y1="155.4063" y2="155.4063"/><rect fill="none" height="6" style="stroke: #C82930; stroke-width: 1.0;" width="6" x="338.5" y="164.3086"/><text fill="#000000" font-family="sans-serif" font-size="11" lengthAdjust="spacingAndGlyphs" textLength="86" x="350.5" y="169.6167">scan : Scanner</text><line style="stroke: #A80036; stroke-width: 1.5;" x1="331.5" x2="446.5" y1="176.2109" y2="176.2109"/><ellipse cx="341.5" cy="188.1133" fill="#84BE84" rx="3" ry="3" style="stroke: #038048; stroke-width: 1.0;"/><text fill="#000000" font-family="sans-serif" font-size="11" lengthAdjust="spacingAndGlyphs" textLength="85" x="350.5" y="190.4214">UserInterface()</text><ellipse cx="341.5" cy="200.918" fill="#84BE84" rx="3" ry="3" style="stroke: #038048; stroke-width: 1.0;"/><text fill="#000000" font-family="sans-serif" font-size="11" lengthAdjust="spacingAndGlyphs" textLength="35" x="350.5" y="203.2261">start()</text><ellipse cx="341.5" cy="213.7227" fill="#84BE84" rx="3" ry="3" style="stroke: #038048; stroke-width: 1.0;"/><text fill="#000000" font-family="sans-serif" font-size="11" lengthAdjust="spacingAndGlyphs" text-decoration="underline" textLength="40" x="350.5" y="216.0308">menu()</text><line style="stroke: #000000; stroke-width: 1.0;" x1="350.5" x2="390.5" y1="218.0308" y2="218.0308"/><!--link MultipleEntryDictionary to Phonebook--><path d="M230.2248,235.3503 C243.4443,270.8932 260.3221,316.2723 275.3847,356.7709 " fill="none" id="MultipleEntryDictionary-Phonebook" style="stroke: #A80036; stroke-width: 1.0;"/><polygon fill="none" points="223.5103,237.3773,223.0991,216.1916,236.6321,232.4969,223.5103,237.3773" style="stroke: #A80036; stroke-width: 1.0;"/><!--link UserInterface to Phonebook--><path d="M372.3976,235.1651 C362.9232,270.6943 350.816,316.0965 340.0071,356.6298 " fill="none" id="UserInterface-Phonebook" style="stroke: #A80036; stroke-width: 1.0;"/><polygon fill="#FFFFFF" points="375.7618,222.5494,370.3508,227.3162,372.6697,234.1442,378.0807,229.3775,375.7618,222.5494" style="stroke: #A80036; stroke-width: 1.0;"/><text fill="#000000" font-family="sans-serif" font-size="13" lengthAdjust="spacingAndGlyphs" textLength="72" x="352" y="322.9876">phoneBook</text><text fill="#888888" font-family="sans-serif" font-size="10" lengthAdjust="spacingAndGlyphs" textLength="0" x="669" y="594.203"/><text fill="#888888" font-family="sans-serif" font-size="10" lengthAdjust="spacingAndGlyphs" textLength="0" x="669" y="605.8618"/><text fill="#888888" font-family="sans-serif" font-size="10" lengthAdjust="spacingAndGlyphs" textLength="391" x="278" y="617.5206">PlantUML diagram generated by SketchIt! (https://bitbucket.org/pmesmeur/sketch.it)</text><text fill="#888888" font-family="sans-serif" font-size="10" lengthAdjust="spacingAndGlyphs" textLength="387" x="282" y="629.1794">For more information about this tool, please contact philippe.mesmeur@gmail.com</text><!--
@startuml

title __SRC's Class Diagram__\n

  package  {
    class Main {
        {static} + main()
    }
  }
  

  package  {
    interface MultipleEntryDictionary {
        {abstract} + add()
        {abstract} + translate()
        {abstract} + remove()
    }
  }
  

  package  {
    class Person {
        - name : String
        - phoneNumber : String
        - streetAddr : String
        - city : String
        + Person()
        + Person()
        + getName()
        + getPhoneNumber()
        + getStreetAddr()
        + getCity()
        + setPhoneNumber()
        + setStreetAddr()
        + setCity()
    }
  }
  

  package  {
    class Phonebook {
        - phoneBook : Map<String, Set<Person>>
        - scan : Scanner
        + Phonebook()
        + addPerson()
        + searchByName()
        + searchByNumber()
        + addAddress()
        + searchInfo()
        + add()
        + translate()
        + remove()
        + filterSearch()
    }
  }
  

  package  {
    class UserInterface {
        - scan : Scanner
        + UserInterface()
        + start()
        {static} + menu()
    }
  }
  

  Phonebook -up-|> MultipleEntryDictionary
  UserInterface o- - Phonebook : phoneBook


right footer


PlantUML diagram generated by SketchIt! (https://bitbucket.org/pmesmeur/sketch.it)
For more information about this tool, please contact philippe.mesmeur@gmail.com
endfooter

@enduml

PlantUML version 1.2018.11(Sat Sep 22 11:43:53 CDT 2018)
(GPL source distribution)
Java Runtime: OpenJDK Runtime Environment
JVM: OpenJDK 64-Bit Server VM
Java Version: 1.8.0_152-release-1343-b26
Operating System: Linux
OS Version: 4.19.32-1-MANJARO
Default Encoding: UTF-8
Language: en
Country: US
--></g></svg>